<mxfile host="app.diagrams.net" modified="2022-11-15T01:36:26.785Z" agent="5.0 (Windows NT 10.0; Win64; x64) AppleWebKit/537.36 (KHTML, like Gecko) Chrome/107.0.0.0 Safari/537.36 Edg/107.0.1418.42" etag="L3w2loh5X8oNkb89S8KS" version="20.5.3" type="github">
  <diagram id="7drGlwQU_m2oJ-XbZ-v6" name="페이지-1">
    <mxGraphModel dx="1038" dy="579" grid="1" gridSize="10" guides="1" tooltips="1" connect="1" arrows="1" fold="1" page="1" pageScale="1" pageWidth="827" pageHeight="1169" math="0" shadow="0">
      <root>
        <mxCell id="0" />
        <mxCell id="1" parent="0" />
        <mxCell id="-wSrzI2DskG3X5Fqx5BN-1" value="ui" style="shape=umlLifeline;perimeter=lifelinePerimeter;whiteSpace=wrap;html=1;container=1;collapsible=0;recursiveResize=0;outlineConnect=0;" vertex="1" parent="1">
          <mxGeometry x="281" y="22" width="100" height="310" as="geometry" />
        </mxCell>
        <mxCell id="-wSrzI2DskG3X5Fqx5BN-2" value="" style="html=1;points=[];perimeter=orthogonalPerimeter;" vertex="1" parent="-wSrzI2DskG3X5Fqx5BN-1">
          <mxGeometry x="45" y="79" width="10" height="31" as="geometry" />
        </mxCell>
        <mxCell id="-wSrzI2DskG3X5Fqx5BN-14" value="품질 테스트 화면 출력" style="html=1;verticalAlign=bottom;endArrow=block;rounded=0;" edge="1" parent="-wSrzI2DskG3X5Fqx5BN-1" target="-wSrzI2DskG3X5Fqx5BN-3">
          <mxGeometry width="80" relative="1" as="geometry">
            <mxPoint x="45" y="102" as="sourcePoint" />
            <mxPoint x="-121" y="102" as="targetPoint" />
          </mxGeometry>
        </mxCell>
        <mxCell id="-wSrzI2DskG3X5Fqx5BN-20" value="품질 테스트 측정결과 출력" style="html=1;verticalAlign=bottom;endArrow=block;rounded=0;" edge="1" parent="-wSrzI2DskG3X5Fqx5BN-1">
          <mxGeometry width="80" relative="1" as="geometry">
            <mxPoint x="49" y="202" as="sourcePoint" />
            <mxPoint x="-130.5" y="202" as="targetPoint" />
          </mxGeometry>
        </mxCell>
        <mxCell id="-wSrzI2DskG3X5Fqx5BN-21" value="" style="html=1;points=[];perimeter=orthogonalPerimeter;" vertex="1" parent="-wSrzI2DskG3X5Fqx5BN-1">
          <mxGeometry x="45" y="133" width="10" height="77" as="geometry" />
        </mxCell>
        <mxCell id="-wSrzI2DskG3X5Fqx5BN-3" value="user" style="shape=umlLifeline;perimeter=lifelinePerimeter;whiteSpace=wrap;html=1;container=1;collapsible=0;recursiveResize=0;outlineConnect=0;" vertex="1" parent="1">
          <mxGeometry x="101" y="22" width="100" height="310" as="geometry" />
        </mxCell>
        <mxCell id="-wSrzI2DskG3X5Fqx5BN-4" value="" style="html=1;points=[];perimeter=orthogonalPerimeter;" vertex="1" parent="-wSrzI2DskG3X5Fqx5BN-3">
          <mxGeometry x="45" y="100" width="10" height="20" as="geometry" />
        </mxCell>
        <mxCell id="-wSrzI2DskG3X5Fqx5BN-24" value="" style="html=1;points=[];perimeter=orthogonalPerimeter;" vertex="1" parent="-wSrzI2DskG3X5Fqx5BN-3">
          <mxGeometry x="45" y="203" width="10" height="17" as="geometry" />
        </mxCell>
        <mxCell id="-wSrzI2DskG3X5Fqx5BN-5" value="데몬 통신 테스터" style="shape=umlLifeline;perimeter=lifelinePerimeter;whiteSpace=wrap;html=1;container=1;collapsible=0;recursiveResize=0;outlineConnect=0;" vertex="1" parent="1">
          <mxGeometry x="461" y="22" width="100" height="310" as="geometry" />
        </mxCell>
        <mxCell id="-wSrzI2DskG3X5Fqx5BN-16" value="품질 테스트 파라미터 정보 전달" style="html=1;verticalAlign=bottom;endArrow=block;rounded=0;" edge="1" parent="-wSrzI2DskG3X5Fqx5BN-5">
          <mxGeometry width="80" relative="1" as="geometry">
            <mxPoint x="-130" y="144" as="sourcePoint" />
            <mxPoint x="50.5" y="144" as="targetPoint" />
          </mxGeometry>
        </mxCell>
        <mxCell id="-wSrzI2DskG3X5Fqx5BN-22" value="" style="html=1;points=[];perimeter=orthogonalPerimeter;" vertex="1" parent="-wSrzI2DskG3X5Fqx5BN-5">
          <mxGeometry x="45" y="143" width="10" height="60" as="geometry" />
        </mxCell>
        <mxCell id="-wSrzI2DskG3X5Fqx5BN-7" value="데몬 sw" style="shape=umlLifeline;perimeter=lifelinePerimeter;whiteSpace=wrap;html=1;container=1;collapsible=0;recursiveResize=0;outlineConnect=0;" vertex="1" parent="1">
          <mxGeometry x="641" y="22" width="100" height="310" as="geometry" />
        </mxCell>
        <mxCell id="-wSrzI2DskG3X5Fqx5BN-23" value="" style="html=1;points=[];perimeter=orthogonalPerimeter;" vertex="1" parent="-wSrzI2DskG3X5Fqx5BN-7">
          <mxGeometry x="45" y="153" width="10" height="20" as="geometry" />
        </mxCell>
        <mxCell id="-wSrzI2DskG3X5Fqx5BN-9" value="품질 테스트 버튼 클릭" style="html=1;verticalAlign=bottom;endArrow=block;rounded=0;" edge="1" parent="1" target="-wSrzI2DskG3X5Fqx5BN-1">
          <mxGeometry width="80" relative="1" as="geometry">
            <mxPoint x="150" y="102" as="sourcePoint" />
            <mxPoint x="230" y="102" as="targetPoint" />
          </mxGeometry>
        </mxCell>
        <mxCell id="-wSrzI2DskG3X5Fqx5BN-15" value="품질 테스트 파라미터 정보 입력" style="html=1;verticalAlign=bottom;endArrow=block;rounded=0;" edge="1" parent="1">
          <mxGeometry width="80" relative="1" as="geometry">
            <mxPoint x="150" y="156" as="sourcePoint" />
            <mxPoint x="330.5" y="156" as="targetPoint" />
          </mxGeometry>
        </mxCell>
        <mxCell id="-wSrzI2DskG3X5Fqx5BN-17" value="품질 테스트 파라미터 정보 전달" style="html=1;verticalAlign=bottom;endArrow=block;rounded=0;" edge="1" parent="1">
          <mxGeometry width="80" relative="1" as="geometry">
            <mxPoint x="510" y="176" as="sourcePoint" />
            <mxPoint x="690.5" y="176" as="targetPoint" />
          </mxGeometry>
        </mxCell>
        <mxCell id="-wSrzI2DskG3X5Fqx5BN-18" value="품질 테스트 측정결과 전달" style="html=1;verticalAlign=bottom;endArrow=block;rounded=0;" edge="1" parent="1">
          <mxGeometry width="80" relative="1" as="geometry">
            <mxPoint x="690" y="203" as="sourcePoint" />
            <mxPoint x="510.5" y="203" as="targetPoint" />
          </mxGeometry>
        </mxCell>
        <mxCell id="-wSrzI2DskG3X5Fqx5BN-19" value="품질 테스트 측정결과 전달" style="html=1;verticalAlign=bottom;endArrow=block;rounded=0;" edge="1" parent="1">
          <mxGeometry width="80" relative="1" as="geometry">
            <mxPoint x="509.5" y="213" as="sourcePoint" />
            <mxPoint x="330" y="213" as="targetPoint" />
          </mxGeometry>
        </mxCell>
      </root>
    </mxGraphModel>
  </diagram>
</mxfile>
